{"title":"Megadeth Rust In Peace Live 2010 MBRRip H264 - Wrath","uid":5840957,"size":1881251884,"categoryP":"video","categoryS":"movies","magnet":"?xt=urn:btih:450414adf0bfce965a00412ccf3d997cf2ee1dd8&amp;dn=Megadeth+Rust+In+Peace+Live+2010+MBRRip+H264+-+Wrath&amp;tr=udp%3A%2F%2Ftracker.openbittorrent.com%3A80&amp;tr=udp%3A%2F%2Fopen.demonii.com%3A1337&amp;tr=udp%3A%2F%2Ftracker.coppersurfer.tk%3A6969&amp;tr=udp%3A%2F%2Fexodus.desync.com%3A6969","seeders":3,"leechers":1,"uploader":"neon","files":-1,"time":1284958975,"description":" &lt;a href=&quot;http://www.blu-ray.com/movies/Megadeth-Rust-in-Peace-Live-Blu-ray/13007/&quot; rel=&quot;nofollow&quot; target=&quot;_NEW&quot;&gt;http://www.blu-ray.com/movies/Megadeth-Rust-in-Peace-Live-Blu-ray/13007/&lt;/a&gt;\n\nRelease Date: 07 September 2010\n\nGenre: Music\n\nPlot: Megadeth: Rust in Peace Live, recorded on March 31 at the Hollywood Palladium, on the final night of Megadeth's historic month-long Rust In Peace 20th anniversary tour.\n\nSet List:\n\n001:Holy Wars...The Punishment Due\n002:Hangar 18\n003:Take No Prisoners\n004:Five Magics\n005:Poison Was The Cure\n006:Lucretia\n007:Tornado Of Souls\n008:Dawn Patrol\n009:Rust In Peace...Polaris\n010:Holy Wars - Reprise\n011:Skin O' My Teeth\n012:In My Darkest Hour\n013:She-Wolf\n014:Trust\n015:Symphony Of Destruction\n016:Peace Sells\n\nScreens &lt;a href=&quot;\nhttp://www.imagebam.com/image/7ff66f98462547&quot; rel=&quot;nofollow&quot; target=&quot;_NEW&quot;&gt;\nhttp://www.imagebam.com/image/7ff66f98462547&lt;/a&gt;\n\nFile Name\n\nMegadeth Rust In Peace Live 2010 720p MBRRip H264.mp4\n\nFile Size\nFormat : MPEG-4\nFormat profile : Base Media\nCodec ID : isom\nFile size : 1.75 GiB\nDuration : 1h 13mn\nOverall bit rate : 3 393 Kbps\n\nVideo\nID : 1\nFormat : AVC\nFormat/Info : Advanced Video Codec\nFormat profile : &lt;a class=&quot;__cf_email__&quot; href=&quot;/cdn-cgi/l/email-protection&quot; data-cfemail=&quot;125a7b757a525e263c23&quot;&gt;[email&amp;#160;protected]&lt;/a&gt;&lt;script data-cfhash='f9e31' type=&quot;text/javascript&quot;&gt;\n/* &lt;![CDATA[ */!function(){try{var t=&quot;currentScript&quot;in document?document.currentScript:function(){for(var t=document.getElementsByTagName(&quot;script&quot;),e=t.length;e--;)if(t[e].getAttribute(&quot;data-cfhash&quot;))return t[e]}();if(t&amp;&amp;t.previousSibling){var e,r,n,i,c=t.previousSibling,a=c.getAttribute(&quot;data-cfemail&quot;);if(a){for(e=&quot;&quot;,r=parseInt(a.substr(0,2),16),n=2;a.length-n;n+=2)i=parseInt(a.substr(n,2),16)^r,e+=String.fromCharCode(i);e=document.createTextNode(e),c.parentNode.replaceChild(e,c)}t.parentNode.removeChild(t);}}catch(u){}}()/* ]]&gt; */&lt;/script&gt;\nFormat settings, CABAC : Yes\nFormat settings, ReFrames : 3 frames\nCodec ID : avc1\nCodec ID/Info : Advanced Video Coding\nDuration : 1h 13mn\nBit rate mode : Variable\nBit rate : 2 749 Kbps\nMaximum bit rate : 8 759 Kbps\nWidth : 1 280 pixels\nHeight : 720 pixels\nDisplay aspect ratio : 16:9\nFrame rate mode : Constant\nFrame rate : 29.970 fps\nResolution : 24 bits\nColorimetry : 4:2:0\nScan type : Progressive\nBits/(Pixel*Frame) : 0.100\nStream size : 1.42 GiB (81%)\n\nAudio #1\nID : 2\nFormat : AAC\nFormat/Info : Advanced Audio Codec\nFormat version : Version 4\nFormat profile : LC\nFormat settings, SBR : No\nCodec ID : 40\nDuration : 1h 13mn\nBit rate mode : Variable\nBit rate : 192 Kbps\nMaximum bit rate : 196 Kbps\nChannel(s) : 2 channels\nChannel positions : L R\nSampling rate : 48.0 KHz\nResolution : 16 bits\nStream size : 101 MiB (6%)\n\nAudio #2\nID : 3\nFormat : AAC\nFormat/Info : Advanced Audio Codec\nFormat version : Version 4\nFormat profile : LC\nFormat settings, SBR : No\nCodec ID : 40\nDuration : 1h 13mn\nBit rate mode : Variable\nBit rate : 448 Kbps\nMaximum bit rate : 458 Kbps\nChannel(s) : 6 channels\nChannel positions : Front: L C R, Rear: L R, LFE","torrent":{"xt":"urn:btih:450414adf0bfce965a00412ccf3d997cf2ee1dd8","amp;dn":"Megadeth+Rust+In+Peace+Live+2010+MBRRip+H264+-+Wrath","amp;tr":["udp%3A%2F%2Ftracker.openbittorrent.com%3A80","udp%3A%2F%2Fopen.demonii.com%3A1337","udp%3A%2F%2Ftracker.coppersurfer.tk%3A6969","udp%3A%2F%2Fexodus.desync.com%3A6969"],"infoHash":"450414adf0bfce965a00412ccf3d997cf2ee1dd8","infoHashBuffer":{"type":"Buffer","data":[69,4,20,173,240,191,206,150,90,0,65,44,207,61,153,124,242,238,29,216]},"announce":[],"urlList":[]}}